# xmcd
#
# Track frame offsets: 
#        150
#        33510
#        59190
#        92565
#        128873
#
# Disc length: 2397 seconds
#
# Revision: 2
# Processed by: cddbd v1.5.2PL0 Copyright (c) Steve Scherf et al.
# Submitted via: ExactAudioCopy v0.99pb4
#
DISCID=43095b05
DTITLE=Joe Turner - Live: Shake, Rattle And Roll
DYEAR=1977
DGENRE=Blues
TTITLE0=Chains Of Love
TTITLE1=Corrine, Corrina
TTITLE2=Shake, Rattle And Roll
TTITLE3=I Hear You Knockin'
TTITLE4=Give Me An Hour In Your Garden
EXTD=
EXTT0=
EXTT1=
EXTT2=
EXTT3=
EXTT4=
PLAYORDER=
